IKResults
version=1
nRows=11
nColumns=40
inDegrees=yes

Units are S.I. units (second, meters, Newtons, ...)
Angles are in degrees.

endheader
time	pelvis_tilt	pelvis_list	pelvis_rotation	pelvis_tx	pelvis_ty	pelvis_tz	hip_flexion_r	hip_adduction_r	hip_rotation_r	knee_angle_r	knee_angle_r_beta	ankle_angle_r	subtalar_angle_r	mtp_angle_r	hip_flexion_l	hip_adduction_l	hip_rotation_l	knee_angle_l	knee_angle_l_beta	ankle_angle_l	subtalar_angle_l	mtp_angle_l	lumbar_extension	lumbar_bending	lumbar_rotation	arm_flex_r	arm_add_r	arm_rot_r	elbow_flex_r	pro_sup_r	wrist_flex_r	wrist_dev_r	arm_flex_l	arm_add_l	arm_rot_l	elbow_flex_l	pro_sup_l	wrist_flex_l	wrist_dev_l
      1.52000000	     15.91883754	      1.17313850	     -1.47266781	     -0.02858823	      0.94328558	     -0.98173002	    -25.02454260	      0.21055247	    -19.27920422	    -10.27934309	     -0.17940838	     12.48582983	      9.68864426	     -4.80762653	      2.69246906	      1.44857913	     23.95682507	    -13.56679358	     -0.23678522	      3.70380498	     -8.64765375	     -8.67203670	    -24.26424615	     -1.95524463	      3.44201170	      2.19902961	    -11.53729235	      0.48993846	     23.00805518	     89.95437384	      0.00000000	      0.00000000	     -1.49469136	      9.84647801	      8.68044217	     20.41746497	     89.95437384	      0.00000000	      0.00000000
      1.53000000	     15.77021870	      1.18646860	     -1.57955647	     -0.02284662	      0.94243200	     -0.98219951	    -25.13167976	      0.11807232	    -19.20176244	    -10.48607435	     -0.18301652	     12.58568070	      9.44606065	     -4.79336535	      2.96231904	      1.41177659	     23.90438375	    -13.49485780	     -0.23552970	      3.78676716	     -8.58494354	     -8.61605777	    -24.09082217	     -2.02512286	      3.52079266	      2.09813804	    -11.52002793	      0.47296588	     23.06409797	     89.95437384	      0.00000000	      0.00000000	     -1.92320071	      9.79042720	      8.71567728	     20.30466894	     89.95437384	      0.00000000	      0.00000000
      1.54000000	     15.85681181	      1.55151376	     -2.02884904	     -0.01686378	      0.94194854	     -0.98272291	    -25.51047717	     -0.49004176	    -18.54085787	    -10.67946497	     -0.18639183	     13.19680357	      9.03960692	     -4.91109466	      2.56302576	      0.82242491	     24.00767543	    -12.72287612	     -0.22205608	      3.96489886	     -9.17065378	     -8.80332474	    -24.14181071	     -2.55932413	      3.76485192	      2.09211646	    -11.44792516	      0.31687946	     22.92790027	     89.95437384	      0.00000000	      0.00000000	     -2.24381465	      9.64169571	      9.13727645	     20.02931457	     89.95437384	      0.00000000	      0.00000000
      1.55000000	     15.87760341	      1.74660437	     -2.41436635	     -0.01084847	      0.94141299	     -0.98322643	    -25.77871644	     -0.91981318	    -18.13138905	    -10.93112187	     -0.19078407	     13.36444756	      8.48253921	     -4.97806571	      2.27540603	      0.48876434	     24.38752618	    -12.07756769	     -0.21079332	      3.50547247	     -9.52312051	     -8.99866800	    -24.14058341	     -2.90661871	      4.00486235	      2.00145922	    -11.43229439	      0.24523514	     22.95410639	     89.95437384	      0.00000000	      0.00000000	     -2.56482231	      9.49422529	      9.55193438	     19.83831308	     89.95437384	      0.00000000	      0.00000000
      1.56000000	     15.66705235	      1.72936644	     -2.51294952	     -0.00496197	      0.94044180	     -0.98395093	    -25.75855140	     -1.03421116	    -18.00189741	    -11.30046738	     -0.19723036	     13.26064623	      8.23460302	     -4.92396981	      2.59522756	      0.49846886	     24.09297917	    -12.28206182	     -0.21436242	      3.45664353	     -9.33843551	     -8.88830814	    -23.91983545	     -2.92823618	      4.06644568	      1.84717653	    -11.43238021	      0.24497912	     23.12231012	     89.95437384	      0.00000000	      0.00000000	     -2.98731653	      9.41730232	      9.55112808	     19.85699335	     89.95437384	      0.00000000	      0.00000000
      1.57000000	     15.61551188	      1.77682899	     -2.72106909	      0.00121679	      0.93972468	     -0.98472684	    -26.06200543	     -1.22201709	    -17.63166973	    -11.38641389	     -0.19873041	     13.65948406	      8.12408436	     -5.01823881	      2.35957856	      0.30141097	     23.84635848	    -11.77306351	     -0.20547872	      3.66352027	     -9.84933938	     -9.03612145	    -23.82349065	     -3.05286069	      4.21924287	      1.79554437	    -11.42406649	      0.26873361	     23.00187355	     89.95437384	      0.00000000	      0.00000000	     -3.18427501	      9.26998712	      9.78943667	     19.45019008	     89.95437384	      0.00000000	      0.00000000
      1.58000000	     15.38132336	      1.74188153	     -2.81750921	      0.00725147	      0.93871017	     -0.98551485	    -26.00382293	     -1.33174572	    -17.47725330	    -11.79826137	     -0.20591851	     13.51654432	      7.88017025	     -4.95969680	      2.60316258	      0.32580137	     23.58005126	    -11.96961872	     -0.20890926	      3.57872897	     -9.64908420	     -8.91575488	    -23.57810079	     -3.06528929	      4.25718530	      1.62451298	    -11.40822341	      0.27405693	     23.18796288	     89.95437384	      0.00000000	      0.00000000	     -3.57675604	      9.20667096	      9.80742546	     19.48023216	     89.95437384	      0.00000000	      0.00000000
      1.59000000	     15.53430974	      1.88593896	     -3.42824602	      0.01408624	      0.93828755	     -0.98617270	    -26.46211234	     -1.86085514	    -16.96680151	    -12.01896098	     -0.20977044	     13.84537585	      7.56573622	     -5.11637319	      1.69554029	     -0.09834700	     23.80383247	    -10.83552661	     -0.18911562	      3.18383272	    -10.36164838	     -9.25595148	    -23.61462411	     -3.41337941	      4.70367908	      1.47490293	    -11.48390912	      0.46730689	     23.16530591	     89.95437384	      0.00000000	      0.00000000	     -3.76028906	      8.93723964	     10.36442698	     18.97203002	     89.95437384	      0.00000000	      0.00000000
      1.60000000	     15.28407878	      1.82913026	     -3.50710060	      0.02047334	      0.93720584	     -0.98714783	    -26.43472465	     -1.95300444	    -16.83908674	    -12.40800785	     -0.21656059	     13.71160335	      7.35356285	     -5.05901567	      1.85441522	     -0.05176895	     23.53595055	    -11.09248089	     -0.19360031	      3.12164612	    -10.14134690	     -9.13890072	    -23.31783451	     -3.39430639	      4.70988408	      1.28422446	    -11.47151506	      0.47928039	     23.30103506	     89.95437384	      0.00000000	      0.00000000	     -4.16086242	      8.85715220	     10.33456498	     18.97329791	     89.95437384	      0.00000000	      0.00000000
      1.61000000	     15.26063046	      1.69894311	     -3.71999733	      0.02732857	      0.93649303	     -0.98813480	    -26.78591638	     -2.02660898	    -16.66480161	    -12.52299828	     -0.21856755	     13.97169986	      7.30811942	     -5.11111943	      1.41032515	     -0.03059753	     23.51172378	    -10.80702418	     -0.18861815	      3.21386468	    -10.38791735	     -9.23827520	    -23.17344328	     -3.32797183	      4.91013006	      1.21602950	    -11.49010486	      0.58834570	     23.05703220	     89.95437384	      0.00000000	      0.00000000	     -4.34941101	      8.70309017	     10.39716849	     18.54581015	     89.95437384	      0.00000000	      0.00000000
      1.62000000	     14.98073148	      1.63834105	     -3.82110291	      0.03396670	      0.93534598	     -0.98931259	    -26.70289045	     -2.14994346	    -16.47969493	    -12.97490765	     -0.22645486	     13.77747724	      7.08869738	     -5.04185732	      1.49200368	     -0.00653165	     23.26046561	    -11.15502208	     -0.19469186	      3.06681381	    -10.07602766	     -9.09446429	    -22.82756371	     -3.30165724	      4.90423394	      0.99477588	    -11.50301857	      0.59081913	     23.23532854	     89.95437384	      0.00000000	      0.00000000	     -4.75896045	      8.60586915	     10.36664489	     18.60997006	     89.95437384	      0.00000000	      0.00000000
